<?xml version="1.0" encoding="UTF-8"?>
<!DOCTYPE svg PUBLIC "-//W3C//DTD SVG 1.1//EN" "http://www.w3.org/Graphics/SVG/1.1/DTD/svg11.dtd">
<svg xmlns="http://www.w3.org/2000/svg" version="1.1" width="256px" height="256px" style="shape-rendering:geometricPrecision; text-rendering:geometricPrecision; image-rendering:optimizeQuality; fill-rule:evenodd; clip-rule:evenodd" xmlns:xlink="http://www.w3.org/1999/xlink">
<g><path style="opacity:1" fill="#f9faf9" d="M 15.5,9.5 C 90.5007,9.33334 165.501,9.5 240.5,10C 241.931,10.4652 243.097,11.2986 244,12.5C 245.66,88.7517 245.994,165.085 245,241.5C 243.833,242.667 242.667,243.833 241.5,245C 165.833,245.667 90.1667,245.667 14.5,245C 13.0692,244.535 11.9025,243.701 11,242.5C 9.33962,166.915 9.00629,91.2483 10,15.5C 10.6831,12.3212 12.5164,10.3212 15.5,9.5 Z M 126.5,50.5 C 129.167,50.5 131.833,50.5 134.5,50.5C 132.915,70.1843 131.081,89.851 129,109.5C 128.692,110.308 128.192,110.975 127.5,111.5C 126.647,90.8873 126.313,70.554 126.5,50.5 Z M 70.5,70.5 C 71.8221,70.33 72.9887,70.6634 74,71.5C 86.1667,86.3333 98.3333,101.167 110.5,116C 109.725,117.23 108.725,117.563 107.5,117C 93.6373,103.471 80.1373,89.6379 67,75.5C 67.7487,73.7746 68.9154,72.1079 70.5,70.5 Z M 105.5,72.5 C 110.556,84.6617 114.889,97.3284 118.5,110.5C 118.167,111.167 117.833,111.833 117.5,112.5C 112.175,100.201 106.842,87.8675 101.5,75.5C 102.624,74.1408 103.958,73.1408 105.5,72.5 Z M 151.5,75.5 C 153.842,75.5041 155.842,76.3375 157.5,78C 150.946,90.2786 144.279,102.445 137.5,114.5C 136.692,114.192 136.025,113.692 135.5,113C 141.127,100.616 146.461,88.1158 151.5,75.5 Z M 186.5,76.5 C 188.584,78.0767 190.584,79.91 192.5,82C 178.208,93.29 164.208,104.957 150.5,117C 148.631,118.602 146.631,119.602 144.5,120C 144.167,119.667 143.833,119.333 143.5,119C 157.728,104.604 172.062,90.4376 186.5,76.5 Z M 67.5,104.5 C 79.3133,111.242 91.3133,117.742 103.5,124C 102.975,124.692 102.308,125.192 101.5,125.5C 89.1667,120.333 76.8333,115.167 64.5,110C 65.6394,108.22 66.6394,106.386 67.5,104.5 Z M 41.5,127.5 C 60.8261,129.333 80.1595,131.166 99.5,133C 99.9574,133.414 100.291,133.914 100.5,134.5C 80.5691,135.295 60.9025,135.629 41.5,135.5C 41.2176,133.013 41.2176,130.347 41.5,127.5 Z M 135.5,134.5 C 161.339,133.483 187.339,133.649 213.5,135C 216.167,141.333 216.167,147.667 213.5,154C 186.872,154.383 160.538,154.716 134.5,155C 136.641,153.692 138.641,152.192 140.5,150.5C 137.72,147.936 134.72,145.603 131.5,143.5C 134.205,141.488 136.872,139.488 139.5,137.5C 138.148,136.476 136.815,135.476 135.5,134.5 Z M 113.5,139.5 C 115.589,139.857 117.589,140.523 119.5,141.5C 118.352,144.289 117.019,146.956 115.5,149.5C 119.5,150.167 123.5,150.833 127.5,151.5C 126.568,153.795 125.735,156.129 125,158.5C 111,168.5 97,178.5 83,188.5C 80.6144,181.278 76.4477,175.278 70.5,170.5C 84.7239,159.9 99.0572,149.567 113.5,139.5 Z M 63.5,171.5 C 73.1731,174.349 78.8398,180.849 80.5,191C 77.7627,194.961 74.2627,198.128 70,200.5C 68.3913,190.556 63.2246,183.056 54.5,178C 57.921,176.301 60.921,174.135 63.5,171.5 Z M 52.5,182.5 C 57.7326,183.042 61.566,185.709 64,190.5C 67.6048,202.207 64.9382,203.54 56,194.5C 53.3229,190.966 52.1562,186.966 52.5,182.5 Z"/></g>
</svg>
